<?xml version="1.0" encoding="UTF-8"?>
<svg width="669px" height="172px" viewBox="0 0 669 172" version="1.1" xmlns="http://www.w3.org/2000/svg" xmlns:xlink="http://www.w3.org/1999/xlink">
    <title>seventeen logo final@2x</title>
    <g id="seventeen-logo-final" stroke="none" stroke-width="1" fill="none" fill-rule="evenodd">
        <g id="Group" transform="translate(7, 7)" fill-rule="nonzero" stroke-width="3">
            <g id="number" transform="translate(115.2782, 0)" fill="#FFFFFF" stroke="#6A6A6A">
                <path d="M1.68827572e-06,73.5069739 L15.5255778,73.5069739 L15.5255778,48.9270396 L1.68827572e-06,33.4081456 L1.68827572e-06,73.5069739 Z M43.7045002,0.397755464 L43.7045002,39.8401271 L3.85551867,0 L0.0032347363,0 L0.0032347363,1.8788241 L0,8.85408007 L0,18.1059139 L15.5255761,33.6248079 L26.1541278,44.2509979 L44.55517,62.6447191 L55.5168742,73.6039876 L59.2300746,73.6039876 L59.2300746,0.397755464 L43.7045002,0.397755464 Z" id="Shape"></path>
                <path d="M116.260052,5.68434189e-14 L116.260052,40.0535554 C116.260052,49.4476759 108.749555,57.3089868 99.5215407,57.5806241 C99.3145328,57.5870921 99.1075249,57.5903261 98.8972822,57.5903261 C98.6805701,57.5903261 98.4606249,57.5870921 98.2439127,57.5806241 C89.0126625,57.2960524 81.5021653,49.4315092 81.5021653,40.0503231 L81.5021653,5.68434189e-14 L65.9765892,5.68434189e-14 L65.9765892,45.6641589 C65.9765892,51.5658004 68.1307632,57.1408314 72.0412673,61.3673784 C73.5032584,62.9486948 75.1172719,64.410361 76.8347886,65.7071059 C83.2261514,70.5480689 90.8563254,73.1059861 98.8972805,73.1059861 C106.922064,73.1059861 114.5393,70.554537 120.927428,65.7297423 C122.632008,64.4426995 124.236317,62.9972017 125.69184,61.4320537 C129.621753,57.2087424 131.785631,51.6207753 131.785631,45.6964974 L131.785631,5.68434189e-14 L116.260052,5.68434189e-14 Z" id="Path"></path>
                <path d="M138.532146,73.6030238 L154.057722,73.6030238 L154.057722,48.8837128 L138.532146,33.3913358 L138.532146,73.6030238 Z M200.967606,0 L171.679252,29.2818515 L157.162837,14.7654287 L142.394132,0 L138.532146,0 L138.532146,18.0962169 L154.057722,33.6183432 L161.228599,40.784391 L171.676017,51.2294879 L173.733156,49.1760404 L176.573041,46.340018 L177.426949,45.4862998 L180.599989,42.3171989 L188.835013,34.0840046 L188.835013,73.6039859 L204.360589,73.6039859 L204.360589,0 L200.967606,0 Z" id="Shape"></path>
                <path d="M226.633003,44.6131758 L256.231545,44.6131758 C259.241243,45.3048808 261.399621,47.9976461 261.399621,51.1098326 C261.399621,54.1460248 259.310783,56.8193876 256.393915,57.5709169 L226.633003,57.5709169 L226.633003,44.6131758 Z M274.131241,40.2799164 C272.908602,38.0938842 271.336636,36.1439168 269.463864,34.4817567 C269.198636,34.248926 268.930173,34.0225617 268.652006,33.7994313 C268.761979,33.6215739 268.868718,33.4404824 268.975456,33.2593909 L268.978691,33.2496889 L268.98516,33.2399868 L268.998097,33.2141164 C269.033676,33.1591431 269.066022,33.1009342 269.095133,33.0427269 C270.938796,29.7475095 271.912379,26.0027957 271.912379,22.2095767 C271.912379,18.4519285 270.954969,14.7363191 269.143652,11.4637381 C269.08543,11.35379 269.023975,11.2470741 268.96252,11.14036 C265.000264,4.26858414 257.622381,1.70530257e-13 249.694633,1.70530257e-13 L211.107104,1.70530257e-13 L211.107104,15.7937652 L226.632682,15.7937652 L226.632682,15.7711288 L251.428322,15.7711288 C254.307023,16.5440016 256.364161,19.2054005 256.364161,22.2095783 C256.364161,25.4077837 254.129126,28.1241559 251.01754,28.748274 L211.107104,28.748274 L211.107104,73.32265 L249.694631,73.32265 C250.525896,73.32265 251.373334,73.2741432 252.211069,73.1803634 C253.052038,73.2741432 253.896241,73.32265 254.730741,73.32265 C262.794337,73.32265 270.23691,68.9441161 274.157117,61.8944828 C275.981371,58.6186677 276.948487,54.88689 276.948487,51.1098394 C276.948487,47.3166204 275.974904,43.5719065 274.131241,40.2799214 L274.131241,40.2799164 Z" id="Shape"></path>
                <path d="M283.698236,1.70530257e-13 L283.695001,2.91039805 L283.695001,15.5221263 L349.009162,15.5221263 L349.009162,1.70530257e-13 L283.698236,1.70530257e-13 Z M299.223812,41.8644702 L342.494888,41.8644702 L342.494888,26.3423439 L299.223812,26.3423439 L283.698236,26.2453301 L283.698236,57.5579876 L283.695001,60.4683857 L283.695001,73.0801139 L349.009162,73.0801139 L349.009162,57.5579876 L299.223814,57.5579876 L299.223812,41.8644702 Z" id="Shape"></path>
                <path d="M423.75124,68.8470989 L402.827291,34.546432 C402.953436,34.4526522 403.076347,34.3588742 403.196024,34.2650944 L403.276886,34.2036531 C403.364217,34.1389779 403.451548,34.0710685 403.535644,34.0031592 C403.6909,33.880275 403.846155,33.7541585 403.998176,33.6280419 C404.208419,33.4566525 404.412192,33.2884954 404.612731,33.1203383 C404.638607,33.0944678 404.667718,33.0718314 404.693594,33.049195 C404.852084,32.9133764 405.010574,32.7710897 405.169065,32.6320371 C405.625129,32.2278153 406.087661,31.797723 406.569599,31.3223579 C411.602474,26.3585106 415.066618,20.1043865 416.590064,13.2423127 C417.165803,10.6585251 417.460142,7.98095778 417.460142,5.28722372 C417.460142,4.43997357 417.431032,3.57008868 417.369577,2.70667014 L417.178741,5.68434189e-14 L355.755677,5.68434189e-14 L355.755677,15.518894 L389.01599,15.518894 L389.01599,15.522128 L399.279044,15.522128 C398.31193,17.2586671 397.089291,18.86262 395.662879,20.272547 C393.786872,22.1255006 391.626228,23.5871669 389.239172,24.6219748 C389.16478,24.6543133 389.090386,24.6866501 389.015994,24.7157546 C386.447804,25.7926031 383.711421,26.3391116 380.874768,26.3391116 L355.755677,26.3391116 L355.755677,73.2741432 L371.281255,73.2741432 L371.281255,41.8612379 L380.874768,41.8612379 C381.117355,41.8612379 381.356709,41.8580038 381.599295,41.8547698 L381.618702,41.8547698 L381.647813,41.8515358 L381.828945,41.8483018 L382.003607,41.8418338 L382.026248,41.8418338 C382.217084,41.8353657 382.404686,41.8288994 382.592287,41.8191973 C382.679618,41.8191973 382.75401,41.8127293 382.808997,41.8094953 C383.048349,41.7965609 383.287701,41.7836248 383.52382,41.7674564 L383.68231,41.7674564 L383.801987,41.74482 C384.044574,41.7254176 384.300099,41.7027811 384.581501,41.6736767 C384.824088,41.6510402 385.069909,41.6219358 385.31573,41.5928313 C385.422468,41.5798969 385.529206,41.5669608 385.632711,41.5507924 C385.86883,41.524922 386.101712,41.4893512 386.334595,41.4537803 L386.363706,41.4505463 C386.451037,41.4376119 386.541603,41.4246759 386.628934,41.4085075 C386.832707,41.379403 387.017073,41.3470645 387.182033,41.31796 C387.647801,41.2371164 388.12974,41.1465706 388.605211,41.0430888 L407.413801,71.8771472 L408.264473,73.2741432 L426.448804,73.2741432 L423.75124,68.8470989 Z" id="Path"></path>
            </g>
            <g id="SEVENTEEN" transform="translate(0, 84.396)">
                <path d="M43.1513992,28.7935435 L22.1627603,28.7935435 C18.5013123,28.7935435 15.5255761,25.8152362 15.5255761,22.1578358 C15.5255761,18.5004354 18.5013123,15.522128 22.1627603,15.522128 L46.4602879,15.522128 C48.8020631,16.3241053 50.4904688,18.5489439 50.4904688,21.1618343 L65.6925949,21.1618343 C65.6925949,19.2086329 65.4273668,17.3168744 64.9324893,15.522128 C62.4645695,6.57426817 54.2651241,0 44.5292938,0 L22.1627603,0 C14.2317778,0 6.85712941,4.2782862 2.91104488,11.1662304 C1.00592702,14.4970204 0,18.2967074 0,22.1578358 C0,26.0189641 1.00592871,29.8186511 2.91104488,33.1494411 C3.76818585,34.6466798 4.78705181,36.017802 5.93853352,37.2498698 C10.0851565,41.6930791 15.9525309,44.3156715 22.162762,44.3156715 L43.1514008,44.3156715 C46.8096141,44.3156715 49.7885834,47.2939789 49.7885834,50.9513793 C49.7885834,54.6087797 46.8096141,57.587087 43.1514008,57.587087 L19.2323087,57.587087 C16.8905335,56.7851097 15.2021278,54.5602711 15.2021278,51.9473807 L0,51.9473807 C0,53.9005821 0.265229806,55.7923406 0.760107318,57.587087 C3.22802709,66.5349468 11.4274725,73.109215 21.1633028,73.109215 L43.1514008,73.109215 C51.0791486,73.109215 58.4537987,68.8309288 62.3998815,61.9429846 C64.3049994,58.6121946 65.3141612,54.8125076 65.3141612,50.9513793 C65.3141612,47.0902509 64.3049994,43.2905639 62.3998815,39.959774 C58.453797,33.0718297 51.0791486,28.7935435 43.1514008,28.7935435 L43.1513992,28.7935435 Z" id="Path" stroke="#363635" fill="#DADADA"></path>
                <path d="M73.1458297,0 L73.1425949,2.91039805 L73.1425949,15.5221263 L138.456756,15.5221263 L138.456756,0 L73.1458297,0 Z M88.6714058,41.8644702 L131.942482,41.8644702 L131.942482,26.3423439 L88.6714058,26.3423439 L73.1458297,26.2453301 L73.1458297,57.5579876 L73.1425949,60.4683857 L73.1425949,73.0801139 L138.456756,73.0801139 L138.456756,57.5579876 L88.6714074,57.5579876 L88.6714058,41.8644702 Z" id="Shape" stroke="#363635" fill="#DADADA"></path>
                <path d="M165.378417,0.234950123 L145.906756,0.234950123 L171.970318,47.3122684 L181.741372,29.6590865 L165.378417,0.234950123 Z M210.483451,0.234951811 L178.138499,58.4558624 L185.965977,73.3247661 L190.148179,73.3247661 L230.098257,0 L210.483451,0.234951811 Z" id="Shape" stroke="#F14949" fill="#FBCACA"></path>
                <path d="M237.551491,0 L237.548257,2.91039805 L237.548257,15.5221263 L302.862418,15.5221263 L302.862418,0 L237.551491,0 Z M253.077067,41.8644702 L296.348143,41.8644702 L296.348143,26.3423439 L253.077067,26.3423439 L237.551491,26.2453301 L237.551491,57.5579876 L237.548257,60.4683857 L237.548257,73.0801139 L302.862418,73.0801139 L302.862418,57.5579876 L253.077069,57.5579876 L253.077067,41.8644702 Z" id="Shape" stroke="#363635" fill="#DADADA"></path>
                <path d="M310.312419,73.5069739 L325.837995,73.5069739 L325.837995,48.9270396 L310.312419,33.4081456 L310.312419,73.5069739 Z M354.016918,0.397755464 L354.016918,39.8401271 L314.167936,1.13686838e-13 L310.315652,1.13686838e-13 L310.315652,1.8788241 L310.312418,8.85408007 L310.312418,18.1059139 L325.837994,33.6248079 L336.466545,44.2509979 L354.867588,62.6447191 L365.829292,73.6039876 L369.542492,73.6039876 L369.542492,0.397755464 L354.016918,0.397755464 Z" id="Shape" stroke="#363635" fill="#DADADA"></path>
                <path d="M417.155218,73.0704136 L417.155218,26.3455779 L401.629642,26.3455779 L401.629642,73.0704136 L417.155218,73.0704136 Z M376.992492,0 L376.992492,15.5221263 L401.629642,15.5221263 L401.629642,15.5253603 L417.155218,15.5253603 L417.155218,15.5221263 L442.83064,15.5221263 L442.83064,0 L376.992492,0 Z" id="Shape" stroke="#363635" fill="#DADADA"></path>
                <path d="M450.283875,0 L450.28064,2.91039805 L450.28064,15.5221263 L515.594801,15.5221263 L515.594801,0 L450.283875,0 Z M465.809451,41.8644702 L509.080527,41.8644702 L509.080527,26.3423439 L465.809451,26.3423439 L450.283875,26.2453301 L450.283875,57.5579876 L450.28064,60.4683857 L450.28064,73.0801139 L515.594801,73.0801139 L515.594801,57.5579876 L465.809453,57.5579876 L465.809451,41.8644702 Z" id="Shape" stroke="#363635" fill="#DADADA"></path>
                <path d="M523.048036,0 L523.044801,2.91039805 L523.044801,15.5221263 L588.358963,15.5221263 L588.358963,0 L523.048036,0 Z M538.573612,41.8644702 L581.844688,41.8644702 L581.844688,26.3423439 L538.573612,26.3423439 L523.048036,26.2453301 L523.048036,57.5579876 L523.044801,60.4683857 L523.044801,73.0801139 L588.358963,73.0801139 L588.358963,57.5579876 L538.573614,57.5579876 L538.573612,41.8644702 Z" id="Shape" stroke="#363635" fill="#DADADA"></path>
                <path d="M595.808964,73.5069739 L611.33454,73.5069739 L611.33454,48.9270396 L595.808964,33.4081456 L595.808964,73.5069739 Z M639.513463,0.397755464 L639.513463,39.8401271 L599.664481,1.13686838e-13 L595.812197,1.13686838e-13 L595.812197,1.8788241 L595.808963,8.85408007 L595.808963,18.1059139 L611.334539,33.6248079 L621.96309,44.2509979 L640.364133,62.6447191 L651.325837,73.6039876 L655.039037,73.6039876 L655.039037,0.397755464 L639.513463,0.397755464 Z" id="Shape" stroke="#363635" fill="#DADADA"></path>
            </g>
        </g>
    </g>
</svg>