<?xml version="1.0" encoding="UTF-8"?>
<svg width="675px" height="171px" viewBox="0 0 675 171" version="1.1" xmlns="http://www.w3.org/2000/svg" xmlns:xlink="http://www.w3.org/1999/xlink">
    <title>seventeen logo final@2x</title>
    <g id="seventeen-logo-final" stroke="none" stroke-width="1" fill="none" fill-rule="evenodd">
        <g id="Group" transform="translate(7, 3)" fill-rule="nonzero" stroke-width="5">
            <g id="Frederick" fill="#FFFFFF" stroke="#444444">
                <path d="M0,30.3208906 L0,43.3931304 L0.00339112465,43.3931304 L0.00339112465,75.748599 L16.2795753,75.748599 L16.2795753,43.3931304 L61.6392692,43.3931304 L61.6392692,27.3042207 L0.00339112465,27.3042207 L0,30.3208906 Z M68.4752667,16.0889096 L68.4752667,5.68434189e-14 L0.00339112465,5.68434189e-14 L0.00339112465,16.0889096 L68.4752667,16.0889096 Z" id="Shape"></path>
                <path d="M148.758181,71.3610192 L126.822631,35.8078791 C126.954874,35.710675 127.083728,35.6134727 127.209191,35.5162686 L127.293962,35.4525839 C127.385515,35.385547 127.477069,35.315158 127.565231,35.244769 C127.727992,35.1173977 127.890754,34.9866761 128.050124,34.8559544 C128.270532,34.6783068 128.484157,34.5040095 128.69439,34.3297123 C128.721518,34.3028972 128.752036,34.2794342 128.779163,34.2559712 C128.945316,34.1151932 129.111469,33.967711 129.277621,33.823581 C129.755734,33.4045992 130.240628,32.9588023 130.745867,32.4660794 C136.022064,27.3209795 139.653688,20.838489 141.250787,13.7258497 C141.854361,11.0477163 142.16293,8.2723788 142.16293,5.48028427 C142.16293,4.60209717 142.132412,3.70044883 142.067986,2.80550296 L141.867924,1.13686838e-13 L77.4752667,1.13686838e-13 L77.4752667,16.0855593 L112.343601,16.0855593 L112.343601,16.0889114 L123.102838,16.0889114 C122.088968,17.8888595 120.807218,19.5513799 119.311844,21.0127898 C117.345139,22.9334032 115.080036,24.4484414 112.577573,25.521035 C112.499584,25.5545543 112.421594,25.5880718 112.343605,25.618239 C109.651252,26.7344082 106.782575,27.3008721 103.80878,27.3008721 L77.4752667,27.3008721 L77.4752667,75.9497149 L93.7514526,75.9497149 L93.7514526,43.3897818 L103.80878,43.3897818 C104.063095,43.3897818 104.31402,43.3864297 104.568335,43.3830776 L104.58868,43.3830776 L104.619198,43.3797255 L104.809087,43.3763733 L104.992194,43.3696691 L105.01593,43.3696691 C105.215992,43.3629649 105.412663,43.3562625 105.609334,43.3462061 C105.700887,43.3462061 105.778876,43.3395019 105.836522,43.3361498 C106.087446,43.3227431 106.338369,43.3093347 106.585904,43.2925759 L106.752056,43.2925759 L106.877519,43.2691129 C107.131834,43.2490021 107.399713,43.2255391 107.69472,43.1953719 C107.949035,43.1719089 108.206741,43.1417417 108.464447,43.1115745 C108.576345,43.0981678 108.688243,43.0847594 108.796752,43.0680006 C109.044287,43.0411855 109.288428,43.0043158 109.53257,42.9674461 L109.563088,42.964094 C109.654641,42.9506873 109.749586,42.9372789 109.841139,42.9205201 C110.054764,42.8903529 110.248044,42.8568336 110.420979,42.8266664 C110.909265,42.7428708 111.414504,42.6490188 111.912962,42.5417584 L131.630883,74.5017082 L132.522682,75.9497149 L151.586163,75.9497149 L148.758181,71.3610192 Z" id="Path"></path>
                <path d="M160.589554,5.68434189e-14 L160.586163,3.0166699 L160.586163,16.0889096 L229.058039,16.0889096 L229.058039,5.68434189e-14 L160.589554,5.68434189e-14 Z M176.865738,43.3931321 L222.228822,43.3931321 L222.228822,27.3042225 L176.865738,27.3042225 L160.589554,27.2036663 L160.589554,59.6596911 L160.586163,62.676361 L160.586163,75.7486008 L229.058039,75.7486008 L229.058039,59.6596911 L176.86574,59.6596911 L176.865738,43.3931321 Z" id="Shape"></path>
                <path d="M307.292861,32.6571372 C306.024674,23.7546062 301.555506,15.5459087 294.705944,9.55279064 C288.422659,4.04904338 280.494801,0.750817556 272.163429,0.124019182 L238.058039,5.68434189e-14 L238.058039,16.1257811 L270.271321,16.1257811 C271.417436,16.1794113 272.546598,16.3168371 273.655412,16.5380586 C276.886913,17.1883182 279.928526,18.5424677 282.59036,20.5401743 C286.927285,23.7881238 289.90108,28.4572596 290.965813,33.6794509 C291.254038,35.093933 291.399845,36.5519907 291.399845,38.0133988 C291.399845,39.5250867 291.240475,41.0434771 290.928514,42.5249979 C289.039798,51.4141205 281.705342,58.2787214 272.644933,59.6630398 L254.334225,59.6630398 L254.334225,27.3410887 L238.058039,27.3410887 L238.058039,75.7519494 L273.740185,75.7519494 L273.923292,75.7284864 C291.047195,73.6737992 304.756489,60.4540773 307.265733,43.5808326 C307.537002,41.7574233 307.676028,39.8837359 307.676028,38.0134006 C307.676028,36.2101021 307.547174,34.4068037 307.292859,32.6571355 L307.292861,32.6571372 Z" id="Path"></path>
                <path d="M316.679419,5.68434189e-14 L316.676028,3.0166699 L316.676028,16.0889096 L385.147903,16.0889096 L385.147903,5.68434189e-14 L316.679419,5.68434189e-14 Z M332.955603,43.3931321 L378.318686,43.3931321 L378.318686,27.3042225 L332.955603,27.3042225 L316.679419,27.2036663 L316.679419,59.6596911 L316.676028,62.676361 L316.676028,75.7486008 L385.147903,75.7486008 L385.147903,59.6596911 L332.955605,59.6596911 L332.955603,43.3931321 Z" id="Shape"></path>
                <path d="M465.430818,71.3610192 L443.495268,35.8078791 C443.627511,35.710675 443.756365,35.6134727 443.881828,35.5162686 L443.966599,35.4525839 C444.058152,35.385547 444.149705,35.315158 444.237867,35.244769 C444.400629,35.1173977 444.563391,34.9866761 444.722761,34.8559544 C444.943168,34.6783068 445.156793,34.5040095 445.367027,34.3297123 C445.394154,34.3028972 445.424673,34.2794342 445.4518,34.2559712 C445.617952,34.1151932 445.784105,33.967711 445.950258,33.823581 C446.428371,33.4045992 446.913265,32.9588023 447.418503,32.4660794 C452.6947,27.3209795 456.326324,20.838489 457.923423,13.7258497 C458.526998,11.0477163 458.835567,8.2723788 458.835567,5.48028427 C458.835567,4.60209717 458.805049,3.70044883 458.740623,2.80550296 L458.54056,1.13686838e-13 L394.147903,1.13686838e-13 L394.147903,16.0855593 L429.016238,16.0855593 L429.016238,16.0889114 L439.775475,16.0889114 C438.761605,17.8888595 437.479855,19.5513799 435.984481,21.0127898 C434.017775,22.9334032 431.752672,24.4484414 429.25021,25.521035 C429.172221,25.5545543 429.09423,25.5880718 429.016242,25.618239 C426.323889,26.7344082 423.455211,27.3008721 420.481416,27.3008721 L394.147903,27.3008721 L394.147903,75.9497149 L410.424089,75.9497149 L410.424089,43.3897818 L420.481416,43.3897818 C420.735731,43.3897818 420.986657,43.3864297 421.240972,43.3830776 L421.261317,43.3830776 L421.291835,43.3797255 L421.481724,43.3763733 L421.66483,43.3696691 L421.688566,43.3696691 C421.888629,43.3629649 422.0853,43.3562625 422.281971,43.3462061 C422.373524,43.3462061 422.451513,43.3395019 422.509158,43.3361498 C422.760082,43.3227431 423.011006,43.3093347 423.25854,43.2925759 L423.424693,43.2925759 L423.550156,43.2691129 C423.804471,43.2490021 424.07235,43.2255391 424.367357,43.1953719 C424.621671,43.1719089 424.879377,43.1417417 425.137083,43.1115745 C425.248982,43.0981678 425.36088,43.0847594 425.469389,43.0680006 C425.716923,43.0411855 425.961065,43.0043158 426.205206,42.9674461 L426.235725,42.964094 C426.327278,42.9506873 426.422222,42.9372789 426.513776,42.9205201 C426.727401,42.8903529 426.920681,42.8568336 427.093615,42.8266664 C427.581902,42.7428708 428.087141,42.6490188 428.585599,42.5417584 L448.30352,74.5017082 L449.195318,75.9497149 L468.2588,75.9497149 L465.430818,71.3610192 Z" id="Path"></path>
                <polygon id="Path" points="477.2588 0 477.2588 75.8927309 493.534984 75.8927309 493.534984 0"></polygon>
                <path d="M561.780298,45.7964173 L560.946143,47.4991596 C557.260265,55.0374848 549.42396,59.9110834 540.973907,59.9110834 C530.546976,59.9110834 521.422139,52.5906293 519.279108,42.5082443 C518.967147,41.0300757 518.807777,39.5116853 518.807777,38 C518.807777,36.5385875 518.953585,35.0805298 519.241809,33.6693981 C521.320413,23.4831066 530.458812,16.0889114 540.977297,16.0889114 C549.878335,16.0889114 557.887573,21.3312136 561.383563,29.4460592 L562.173636,31.2828769 L579.033051,31.2828769 L577.907281,27.4282417 C575.642178,19.6753974 570.803404,12.6934815 564.279367,7.77295521 C557.534923,2.68818973 549.478211,5.68434189e-14 540.977297,5.68434189e-14 C531.655791,5.68434189e-14 522.663199,3.34180146 515.657657,9.40531022 C508.719933,15.4118367 504.196511,23.6674584 502.918153,32.6537851 C502.663838,34.3933988 502.534984,36.1966972 502.534984,38 C502.534984,39.8703309 502.674009,41.7440183 502.948671,43.5707798 C504.274502,52.5001241 508.818271,60.7021174 515.74243,66.66507 C522.734409,72.6850031 531.696482,75.9999895 540.98069,75.9999895 C549.264589,75.9999895 557.151758,73.435819 563.797866,68.5856817 C570.308341,63.8327502 575.062344,57.3167404 577.547852,49.7448975 L578.843166,45.7964103 L561.780298,45.7964173 Z" id="Path"></path>
                <path d="M604.309239,5.68434189e-14 L588.033055,5.68434189e-14 L588.033055,33.9576565 L604.309239,17.8720972 L604.309239,5.68434189e-14 Z M656.220097,70.5867421 L623.115015,37.8659219 L656.209924,5.14845199 L661.418302,1.74953351e-06 L638.401063,1.74953351e-06 L614.217364,23.9054422 L614.234318,23.922201 L588.033051,49.8186421 L588.033051,75.7385497 L604.309236,75.7385497 L604.309236,56.455319 L611.603001,49.2454757 L637.512654,74.8536584 L638.404452,75.7385497 L661.428472,75.7385497 L656.220097,70.5867421 Z" id="Shape"></path>
            </g>
            <g id="AsYou" transform="translate(144, 88)">
                <path d="M2.50039495,71.5227063 L0,75.9999965 L20.3719514,75.9999965 L21.241506,74.4450089 L37.7968884,44.8131206 L27.5787707,26.6459104 L2.50039495,71.5227063 Z M86.0115225,71.5227063 L53.6248224,13.5659226 L46.9728951,1.66557887 L46.2183786,0 L42.3172232,0 L41.5356386,1.6722819 L34.887095,13.5659226 L34.0716766,15.0270748 L34.037841,15.0873985 L44.2559587,33.2546087 L44.5537044,33.7874593 L52.0244339,47.1523068 L67.2704078,74.4450124 L68.1399625,76 L88.5119139,76 L86.0115225,71.5227063 Z" id="Shape" stroke="#444444" fill="#FFFFFF"></path>
                <path d="M136.65096,29.8396648 L114.695539,29.8396648 C110.865437,29.8396648 107.752632,26.7531502 107.752632,22.9628698 C107.752632,19.1725895 110.865437,16.0860749 114.695539,16.0860749 L140.112264,16.0860749 C142.561906,16.9171894 144.328084,19.2228605 144.328084,21.9306818 L160.230453,21.9306818 C160.230453,19.9065171 159.953008,17.9460276 159.435335,16.0860749 C156.853737,6.81312317 148.276608,5.68434189e-14 138.092324,5.68434189e-14 L114.695539,5.68434189e-14 C106.399238,5.68434189e-14 98.6848976,4.43372404 94.5570478,11.5719197 C92.5641761,15.0237232 91.5119139,18.9614598 91.5119139,22.9628698 C91.5119139,26.9642799 92.5641778,30.9020164 94.5570478,34.3538199 C95.4536706,35.905456 96.5194677,37.3263935 97.7239892,38.6032246 C102.061615,43.2078637 108.199253,45.9257396 114.695541,45.9257396 L136.650962,45.9257396 C140.477681,45.9257396 143.593868,49.0122543 143.593868,52.8025346 C143.593868,56.592815 140.477681,59.6793296 136.650962,59.6793296 L111.630105,59.6793296 C109.180462,58.848215 107.414285,56.542544 107.414285,53.8347226 L91.5119139,53.8347226 C91.5119139,55.8588873 91.7893607,57.8193768 92.3070334,59.6793296 C94.8886309,68.9522813 103.465761,75.7654044 113.650044,75.7654044 L136.650962,75.7654044 C144.943879,75.7654044 152.658222,71.3316804 156.78607,64.1934847 C158.778941,60.7416812 159.834587,56.8039447 159.834587,52.8025346 C159.834587,48.8011245 158.778941,44.863388 156.78607,41.4115845 C152.65822,34.2733888 144.943879,29.8396648 136.650962,29.8396648 L136.65096,29.8396648 Z" id="Path" stroke="#444444" fill="#FFFFFF"></path>
                <polygon id="Path" stroke="#F14949" fill="#FBCACA" points="219.379356 0 218.465815 1.23326664 201.362308 24.3838091 184.258801 1.23326664 183.34526 0 163.230453 0 166.772959 4.79566144 191.827652 38.7171692 192.585552 39.7460074 192.616004 39.786222 192.646456 39.8230852 192.649839 39.8297882 193.252098 40.6441452 193.252098 75.9396727 209.492816 75.9396727 209.492816 40.6206864 210.074775 39.8297882 210.078158 39.8230852 210.10861 39.786222 210.139062 39.7460074 210.896962 38.7205207 235.951655 4.79566144 239.494161 0"></polygon>
                <path d="M272.593534,1 C251.585488,1 234.494161,17.9285821 234.494161,38.7362545 C234.494161,59.5439251 251.585488,76.472843 272.593534,76.472843 C293.601241,76.472843 310.692567,59.5442609 310.692567,38.7362545 C310.692567,17.928248 293.601241,1 272.593532,1 L272.593534,1 Z M294.789857,38.7362562 C294.789857,50.8591241 284.832605,60.7218987 272.593193,60.7218987 C260.35412,60.7218987 250.39653,50.8591258 250.39653,38.736258 C250.39653,26.6133901 260.35412,16.7509513 272.593532,16.7509513 C284.832605,16.7509513 294.789857,26.6137242 294.789857,38.7362562 Z" id="Shape" stroke="#444444" fill="#FFFFFF"></path>
                <path d="M373.292195,1 L373.292195,42.5087732 C373.292195,52.244199 365.435748,60.3911255 355.782672,60.6726318 C355.566129,60.6793348 355.349586,60.6826863 355.129659,60.6826863 C354.902965,60.6826863 354.672888,60.6793348 354.446194,60.6726318 C344.789732,60.3777212 336.933285,52.2274449 336.933285,42.5054234 L336.933285,1 L320.692567,1 L320.692567,48.32322 C320.692567,54.4392788 322.945967,60.2168607 327.036597,64.5969657 C328.565931,66.2357342 330.25429,67.7505054 332.050919,69.0943633 C338.736682,74.1112073 346.718318,76.7620582 355.129657,76.7620582 C363.524079,76.7620582 371.492182,74.1179103 378.174562,69.1178222 C379.957658,67.7840188 381.635865,66.2860035 383.158433,64.6639908 C387.269366,60.287239 389.532917,54.496251 389.532917,48.3567334 L389.532917,1 L373.292195,1 Z" id="Path" stroke="#444444" fill="#FFFFFF"></path>
            </g>
        </g>
    </g>
</svg>